<svg xmlns="http://www.w3.org/2000/svg" width="1200" height="400" viewBox="0 0 1200 400">
  <rect width="1200" height="400" fill="#ffffff"/>
  <!-- Minimal mark -->
  <g transform="translate(80,80)">
    <circle cx="120" cy="120" r="110" fill="#0e7490"/>
    <!-- grain/sieve mesh pattern -->
    <g opacity="0.3">
      <rect x="20" y="30" width="12" height="180" fill="#ffffff"/><rect x="40" y="30" width="12" height="180" fill="#ffffff"/><rect x="60" y="30" width="12" height="180" fill="#ffffff"/><rect x="80" y="30" width="12" height="180" fill="#ffffff"/><rect x="100" y="30" width="12" height="180" fill="#ffffff"/><rect x="120" y="30" width="12" height="180" fill="#ffffff"/>
      <rect x="30" y="20" width="180" height="12" fill="#ffffff"/><rect x="30" y="40" width="180" height="12" fill="#ffffff"/><rect x="30" y="60" width="180" height="12" fill="#ffffff"/><rect x="30" y="80" width="180" height="12" fill="#ffffff"/><rect x="30" y="100" width="180" height="12" fill="#ffffff"/><rect x="30" y="120" width="180" height="12" fill="#ffffff"/>
    </g>
    <!-- dune -->
    <path d="M30,180 C70,150 140,160 190,140 L190,200 L30,200 Z" fill="#e3c08d" opacity="0.9"/>
  </g>
  <text x="340" y="220" font-family="Inter, Arial, sans-serif" font-size="135" font-weight="900" fill="#0e7490">UDGAM</text>
  <text x="343" y="265" font-family="Inter, Arial, sans-serif" font-size="32" font-weight="600" letter-spacing="2" fill="#6b7280">PAN INDIA SILICA SAND</text>
</svg>